PathFileType	4	(X/Y/Z)	C:/Users/beibeiliu/ov580/test_trc/User3\out7_training_dense_left.trc
DataRate	CameraRate	NumFrames	NumMarkers	Units	OrigDataRate	OrigDataStartFrame	OrigNumFrames
120	120	13	19	mm	120	438	500
Frame#	Time	ThumbCMC			ThumbMCP			ThumbIP			ThumbTip			IndexMCP			IndexPIP			IndexTip			MiddleMCP			MiddlePIP			MiddleTip			RingMCP			RingPIP			RingTip			PinkyMCP			PinkyPIP			PinkyTip			BackHand1			BackHand2			BackHand3	
		X0	Y0	Z0	X1	Y1	Z1	X2	Y2	Z2	X3	Y3	Z3	X4	Y4	Z4	X5	Y5	Z5	X6	Y6	Z6	X7	Y7	Z7	X8	Y8	Z8	X9	Y9	Z9	X10	Y10	Z10	X11	Y11	Z11	X12	Y12	Z12	X13	Y13	Z13	X14	Y14	Z14	X15	Y15	Z15	X16	Y16	Z16	X17	Y17	Z17	X18	Y18	Z18	
437	3.64167	-150.332	67.3284	41.1802	-137.453	76.7714	15.5499	-139.211	78.6638	-16.7799	-147.873	63.4176	-37.3727	-192.734	87.7969	-17.2655	-178.775	80.7143	-48.0911	-153.119	65.632	-30.8446	-203.125	66.8506	-27.938	-180.455	61.5344	-51.471	-156.99	44.6978	-20.1857	-206.163	46.7734	-23.0869	-183.013	36.2058	-43.4016	-162.655	29.9701	-17.5426	-206.367	29.1226	-14.395	-185.051	22.181	-34.8368	-166.583	19.005	-16.1642	-211.245	40.5959	29.9707	-199.839	29.2036	60.6062	-185.442	67.2087	49.0853	
438	3.65	-161.218	66.003	40.9289	-151.227	77.6705	11.8515	-148.853	81.3309	-19.8157	-158.164	62.496	-36.8065	-207.013	78.3597	-22.278	-191.56	78.1542	-50.4628	-165.854	60.8525	-35.2136	-215.407	61.0021	-31.7593	-190.473	53.4132	-52.2234	-168.347	42.3837	-26.3767	-214.916	43.9415	-25.7945	-194.784	30.1172	-45.5775	-172.297	26.8106	-22.1557	-215.381	20.7734	-15.8729	-192.739	19.613	-35.1031	-172.578	17.4314	-14.6112	-217.21	38.2966	33.3514	-206.499	30.3097	56.0479	-199.12	59.2611	47.5571	
439	3.65833	-170.937	70.6172	35.8321	-163.45	78.1434	8.8944	-162.616	80.2294	-22.2067	-169.483	60.9713	-39.3189	-218.938	69.3996	-22.9017	-200.832	69.3207	-52.9731	-175.05	58.6059	-34.6542	-224.429	54.9166	-30.6099	-203.524	49.8665	-55.102	-176.088	36.9017	-26.6074	-224.033	33.333	-24.9361	-200.621	26.1215	-45.9835	-177.26	24.4564	-20.7647	-221.583	12.8419	-18.7281	-201.201	12.3671	-37.2309	-177.319	9.96813	-16.9628	-224.737	31.9798	30.3382	-210.092	24.8179	58.7402	-209.65	56.0984	42.6757	
440	3.66667	-185.503	66.1448	34.5498	-180.172	78.3689	3.37819	-181.839	75.0023	-27.1315	-182.771	55.2638	-46.0292	-232.386	59.6985	-28.9132	-214.277	59.9673	-55.6576	-187.14	57.4368	-38.32	-234.509	43.3262	-33.2328	-209.748	39.3802	-56.9245	-183.652	33.4876	-28.6816	-231.088	19.8679	-31.873	-206.24	16.7386	-47.1173	-184.23	22.9237	-25.4101	-224.372	4.38414	-20.4152	-205.043	2.95166	-38.0304	-180.803	10.0022	-15.8728	-231.927	18.2069	28.9055	-220.366	17.8016	55.6714	-221.035	49.2149	40.6644	
441	3.675	-202.25	68.5154	31.2788	-199.209	77.6954	-1.50941	-197.42	75.742	-33.0508	-196.23	49.8845	-44.2375	-244.893	50.8477	-29.4742	-223.358	48.0635	-56.5746	-200.87	54.273	-39.2278	-242.987	30.137	-39.3202	-220.219	30.1724	-58.0633	-191.776	33.6317	-30.3396	-236.18	8.89276	-28.2193	-213.028	12.7611	-49.1478	-190.93	20.0744	-25.8903	-226.056	-5.96542	-17.6538	-201.676	-2.49166	-37.317	-184.704	8.99634	-15.1254	-236.561	13.3656	28.2114	-224.158	9.97231	56.7381	-229.969	41.9976	41.09	
442	3.68333	-220.378	64.7633	29.2875	-216.886	76.0162	-2.39597	-217.34	66.4194	-31.3305	-210.711	40.6728	-48.056	-258.144	33.4211	-35.154	-237.394	38.0568	-57.8038	-213.611	48.22	-34.9417	-251.312	16.4341	-35.8551	-228.088	20.2211	-59.104	-202.734	32.0183	-25.7237	-239.807	-1.15819	-31.8699	-211.742	4.28084	-47.9578	-198.532	19.3198	-20.1052	-224.825	-17.528	-23.763	-204.79	-7.04187	-37.9197	-189.845	8.6562	-13.7727	-242.152	-1.17142	24.9884	-227.788	1.98685	54.0248	-243.063	31.3476	39.4058	
443	3.69167	-235.18	54.9593	28.6119	-240.23	65.3962	-7.64236	-236.844	57.9201	-37.3902	-223.551	37.356	-49.0879	-266.967	16.551	-35.5349	-247.346	26.5318	-58.244	-228.584	39.9733	-37.847	-254.723	-1.63235	-38.4837	-234.665	10.741	-59.6391	-214.412	31.0601	-31.1583	-239.962	-13.3894	-34.7717	-221.276	0.123223	-50.7767	-207.683	18.9801	-25.3917	-224.671	-21.4727	-21.8011	-209.104	-5.45766	-39.1388	-195.869	10.2961	-16.7268	-243.725	-14.3259	24.7395	-226.241	-5.8649	54.6552	-252.482	20.9769	36.8292	
444	3.7	-252.578	41.643	26.2543	-258.023	51.16	-5.85748	-252.837	47.567	-33.6043	-237.061	32.1556	-47.721	-272.317	0.502624	-34.5134	-261.616	16.0753	-57.8759	-245.349	37.8063	-32.2928	-260.024	-12.7605	-38.2371	-242.512	4.01144	-59.4112	-224.065	24.3796	-30.8976	-240.496	-22.5975	-33.3024	-221.447	-1.51163	-50.3185	-214.806	15.6143	-26.702	-219.748	-28.9904	-24.2071	-208.306	-6.86204	-40.5065	-204.376	13.4875	-20.8881	-242.006	-23.8242	24.0536	-228.189	-13.6857	52.2845	-255.598	5.63568	39.9554	
445	3.70833	-263.966	30.8658	30.9099	-272.536	42.3066	-1.56881	-267.738	35.6801	-37.6652	-247.61	23.773	-48.082	-275.932	-13.5555	-32.9265	-265.223	6.55788	-55.7971	-254.323	26.3383	-31.2237	-257.53	-26.6014	-37.0145	-250.269	-3.68776	-60.2206	-234.927	20.277	-33.4096	-242.623	-28.6042	-32.8938	-227.913	-10.4056	-51.8947	-223.31	14.7033	-30.5735	-222.121	-30.3143	-21.8268	-214.336	-12.8784	-42.2573	-210.854	12.6955	-25.3291	-237.016	-31.1799	26.4233	-227.466	-16.8283	51.9448	-260.676	-7.94618	39.7211	
446	3.71667	-270.201	20.185	33.736	-281.293	27.5463	-2.43559	-278.511	28.5748	-30.0598	-256.69	19.1478	-44.513	-279.257	-24.1512	-28.0275	-273.934	0.83384	-52.5659	-263.534	20.3954	-27.1438	-257.435	-33.5727	-37.3896	-253.76	-11.0832	-58.9905	-243.516	17.6997	-29.5732	-240.452	-33.485	-32.3817	-233.792	-12.5285	-52.469	-231.049	15.1621	-29.5843	-218.748	-32.5423	-26.607	-218.085	-10.9085	-43.7957	-215.026	15.3274	-24.0741	-230.458	-36.2304	26.2161	-225.215	-22.3661	53.7337	-257.342	-16.9509	41.7286	
447	3.725	-272.761	13.787	35.825	-283.644	23.4173	3.64263	-278.102	22.1324	-25.3761	-254.951	12.8998	-44.5383	-274.246	-30.0794	-29.7937	-276.118	-4.81107	-50.472	-265.028	16.2269	-23.8347	-260.005	-37.1571	-34.798	-255.007	-14.442	-57.6125	-244.108	13.151	-31.074	-240.021	-35.9858	-30.7878	-231.6	-11.8512	-53.3568	-230.538	13.4792	-30.8351	-219.999	-31.9272	-23.8449	-218.068	-11.4772	-44.5288	-220.666	12.6672	-25.5324	-228.014	-39.4482	21.6279	-220.988	-25.7907	50.6921	-258.43	-22.9128	41.18	
448	3.73333	-265.298	8.42929	35.4008	-276.828	19.4309	6.29628	-275.667	18.1404	-29.0061	-252.557	13.5178	-46.1908	-272.803	-30.4746	-27.9495	-268.917	-6.77657	-51.1024	-263.59	14.1387	-22.9709	-251.69	-38.4399	-35.6317	-252.093	-10.8546	-56.4046	-243.74	14.1783	-26.673	-230.722	-36.7421	-35.6457	-228.859	-10.3093	-53.5679	-229.883	12.9255	-35.3304	-212.713	-32.53	-27.0992	-213.935	-12.995	-44.4856	-215.636	15.8217	-24.8469	-224.469	-39.6403	22.4496	-213.699	-27.3812	48.8664	-254.371	-26.9458	39.9912	
449	3.74167	-262.756	7.89706	33.8786	-269.301	15.102	2.65751	-265.12	17.8463	-29.0479	-243.093	15.2365	-41.7362	-262.842	-29.8845	-29.9913	-258.207	-2.74338	-50.5857	-251.006	14.2421	-24.4674	-241.972	-35.8061	-39.1234	-241.673	-9.86882	-57.2499	-234.597	14.1865	-27.0713	-222.929	-33.0055	-36.0709	-221.519	-11.3748	-52.7328	-221.722	16.918	-30.8928	-200.641	-28.5236	-21.9483	-202.839	-9.89535	-43.1364	-206.455	18.4959	-25.3217	-217.788	-39.4537	23.6283	-209.051	-27.7876	51.1783	-243.583	-28.4668	41.459	
